<?xml version="1.0" encoding="UTF-8"?>
<svg width="1440" height="720" viewBox="0 0 1440 720" fill="none" xmlns="http://www.w3.org/2000/svg">
  <g opacity="0.18" fill="#FFFFFF">
    <path d="M180 258c-14 3-30 10-30 22s14 26 30 34 32 12 48 12 34-4 44-14 12-26 6-34-20-10-32-12-24-6-34-10-18-7-32-4Z"/>
    <path d="M360 180c-18 5-36 14-44 28s-2 32 10 44 30 18 48 22 36 6 52 0 28-20 28-34-12-26-26-36-30-20-44-22-28-1-24-2Z"/>
    <path d="M564 224c-22 2-44 10-54 24s-8 34 6 48 38 22 60 28 42 10 58 2 26-26 20-40-26-24-44-34-24-14-46-12Z"/>
    <path d="M744 160c-20 0-40 6-56 18s-28 28-28 46 12 36 30 48 40 18 62 18 40-6 54-20 20-32 14-48-24-26-42-40-14-22-34-22Z"/>
    <path d="M980 210c-20 2-40 10-52 22s-16 28-10 40 22 20 40 26 38 10 58 8 40-10 48-22 4-26-6-38-26-22-42-30-16-8-36-6Z"/>
    <path d="M1168 260c-18 6-32 18-36 30s6 24 18 34 26 18 40 24 28 12 38 10 18-12 20-24-2-28-12-38-24-18-40-26-12-10-28-10Z"/>
    <path d="M220 420c-20 0-38 12-46 26s-4 30 10 40 34 12 54 12 40-2 52-10 18-22 12-32-22-18-40-24-22-12-42-12Z"/>
    <path d="M470 432c-20 2-38 10-46 22s-6 24 4 36 28 20 46 26 36 10 52 6 28-16 30-28-8-24-22-32-26-16-42-22-22-10-22-10Z"/>
    <path d="M706 388c-22 0-46 10-54 26s2 36 20 48 42 16 64 16 40-2 52-12 18-26 12-38-22-18-40-26-30-14-54-14Z"/>
    <path d="M948 424c-18 2-36 10-44 20s-8 22 0 32 24 18 40 24 30 10 44 8 26-12 30-22-2-22-12-32-22-20-36-26-12-6-22-4Z"/>
    <path d="M1176 444c-16 2-30 10-36 20s-4 20 6 30 26 18 40 22 26 8 36 4 18-14 16-24-12-20-22-30-18-14-34-22-6-2-6-2Z"/>
  </g>
</svg>
